<svg width="29" height="31" viewBox="0 0 29 31" fill="none" xmlns="http://www.w3.org/2000/svg">
<path d="M14.2792 30.7659C13.299 30.7659 12.3041 30.5489 11.5287 30.1005L3.48204 25.5147C0.204826 23.3303 0 22.9976 0 19.5691V11.2077C0 7.77919 0.190195 7.44646 3.40888 5.291L11.5141 0.661828C13.0503 -0.220609 15.4643 -0.220609 17.0005 0.661828L25.0765 5.26207C28.3537 7.44646 28.5585 7.77919 28.5585 11.2077V19.5547C28.5585 22.9831 28.3683 23.3159 25.1496 25.4713L17.0444 30.1005C16.2543 30.5489 15.2595 30.7659 14.2792 30.7659ZM14.2792 2.18078C13.6647 2.18078 13.0649 2.29651 12.6406 2.54243L4.59395 7.14267C2.20919 8.73395 2.20919 8.73395 2.20919 11.2077V19.5547C2.20919 22.0284 2.20919 22.0284 4.65247 23.663L12.6406 28.2199C13.5038 28.7117 15.0693 28.7117 15.9325 28.2199L23.9792 23.6196C26.3493 22.0284 26.3493 22.0284 26.3493 19.5547V11.2077C26.3493 8.73395 26.3493 8.73395 23.906 7.09928L15.9178 2.54243C15.4935 2.29651 14.8937 2.18078 14.2792 2.18078Z" fill="black"/>
<path d="M14.2794 20.8135C11.2509 20.8135 8.79297 18.3832 8.79297 15.3887C8.79297 12.3942 11.2509 9.96387 14.2794 9.96387C17.3079 9.96387 19.7658 12.3942 19.7658 15.3887C19.7658 18.3832 17.3079 20.8135 14.2794 20.8135ZM14.2794 12.1338C12.4652 12.1338 10.9875 13.5949 10.9875 15.3887C10.9875 17.1825 12.4652 18.6436 14.2794 18.6436C16.0935 18.6436 17.5712 17.1825 17.5712 15.3887C17.5712 13.5949 16.0935 12.1338 14.2794 12.1338Z" fill="black"/>
</svg>
